<svg width="1061.918" height="1061.918" viewBox="0 0 280.966 280.966" xmlns="http://www.w3.org/2000/svg"><path fill="none" d="M61.108 61.108h158.75v158.75H61.108z"/><g transform="matrix(.26015 0 0 .26015 0 0)"><path d="M0 0h1080v1080H0Z" vector-effect="non-scaling-stroke" fill="#fff"/><path vector-effect="non-scaling-stroke" d="M441.497 700.036C375.31 633.85 356.696 534.57 393.925 449.77c37.23-84.801 123.065-138.577 217.173-135.475v225.446l225.447-231.65 59.98-61.016 10.342-10.342c-167.533-166.499-440.55-166.499-608.084 1.035-167.534 167.533-167.534 438.482 0 604.982 167.533 166.499 440.55 167.533 608.084 0L763.12 700.036c-88.937 87.903-232.685 87.903-321.622 0z" fill="#111110"/><path vector-effect="non-scaling-stroke" d="M611.098 314.399V112.738l-49.64 205.797s4.137-1.034 16.547-2.068c4.137 0 15.513-1.034 23.786-1.034 5.17-1.034 9.307-1.034 9.307-1.034z" fill="#111110"/></g></svg>